<svg width="124" height="38" viewBox="0 0 124 38" fill="none" xmlns="http://www.w3.org/2000/svg">
<ellipse cx="28" cy="17.5" rx="28" ry="17.5" fill="#00BDB2"/>
<path d="M7.65 10.35C8.15 10.3333 9.08333 10.325 10.45 10.325C11.8333 10.325 12.775 10.3333 13.275 10.35C15.175 10.4167 16.5917 10.8833 17.525 11.75C18.4583 12.6 18.925 13.75 18.925 15.2C18.925 16.4333 18.6083 17.4833 17.975 18.35C17.3583 19.2 16.4917 19.7583 15.375 20.025C15.725 20.3083 16.0833 20.7 16.45 21.2C16.8167 21.6833 17.325 22.4417 17.975 23.475C18.6583 24.5583 19.35 25.7333 20.05 27H15.85L13.025 21.75C12.725 21.2 12.45 20.8583 12.2 20.725C11.9667 20.575 11.6083 20.5 11.125 20.5V27H7.65V10.35ZM12.675 17.725C13.525 17.725 14.1917 17.5083 14.675 17.075C15.175 16.6417 15.425 16.0583 15.425 15.325C15.425 14.6583 15.2083 14.15 14.775 13.8C14.3417 13.45 13.7083 13.275 12.875 13.275H11.125V17.725H12.675ZM24.6094 10.35H28.6094L32.5594 23.05L36.4844 10.35H40.2094L34.6094 27H30.2344L24.6094 10.35ZM44.7973 27.375C43.4639 27.375 42.4056 26.8083 41.6223 25.675C40.8389 24.5417 40.4473 23 40.4473 21.05C40.4473 18.6833 41.0473 16.8833 42.2473 15.65C43.4473 14.4 45.1723 13.775 47.4223 13.775C48.6889 13.775 50.1723 13.975 51.8723 14.375V27H48.5223L48.5973 24.95H48.4973C48.0639 25.7333 47.5306 26.3333 46.8973 26.75C46.2806 27.1667 45.5806 27.375 44.7973 27.375ZM45.5473 24.3C46.0639 24.3 46.5723 24.025 47.0723 23.475C47.5723 22.925 48.0389 22.1917 48.4723 21.275V17.075C47.9389 16.925 47.4056 16.85 46.8723 16.85C45.8723 16.85 45.1139 17.1917 44.5973 17.875C44.0973 18.5583 43.8473 19.5667 43.8473 20.9C43.8473 21.95 43.9973 22.7833 44.2973 23.4C44.5973 24 45.0139 24.3 45.5473 24.3Z" fill="white"/>
<path d="M54.9883 14.125H58.4383V16.35C58.9716 15.4667 59.5883 14.8167 60.2883 14.4C60.9883 13.9833 61.8049 13.775 62.7383 13.775C64.1216 13.775 65.2049 14.1917 65.9883 15.025C66.7716 15.8417 67.1633 16.9833 67.1633 18.45V27H63.6383V19C63.6383 18.3333 63.4716 17.8167 63.1383 17.45C62.8049 17.0667 62.3549 16.875 61.7883 16.875C61.1216 16.875 60.4883 17.125 59.8883 17.625C59.2883 18.125 58.8299 18.7583 58.5133 19.525V27H54.9883V14.125ZM76.0008 27.375C75.0341 27.375 74.1508 27.2 73.3508 26.85L74.3008 23.825C74.8008 24.0917 75.2424 24.225 75.6258 24.225C76.4591 24.225 76.8758 23.7083 76.8758 22.675V10.35H80.3758V22.975C80.3758 24.325 79.9758 25.4 79.1758 26.2C78.3924 26.9833 77.3341 27.375 76.0008 27.375ZM87.473 27.375C86.1397 27.375 85.0814 26.8083 84.298 25.675C83.5147 24.5417 83.123 23 83.123 21.05C83.123 18.6833 83.723 16.8833 84.923 15.65C86.123 14.4 87.848 13.775 90.098 13.775C91.3647 13.775 92.848 13.975 94.548 14.375V27H91.198L91.273 24.95H91.173C90.7397 25.7333 90.2064 26.3333 89.573 26.75C88.9564 27.1667 88.2564 27.375 87.473 27.375ZM88.223 24.3C88.7397 24.3 89.248 24.025 89.748 23.475C90.248 22.925 90.7147 22.1917 91.148 21.275V17.075C90.6147 16.925 90.0814 16.85 89.548 16.85C88.548 16.85 87.7897 17.1917 87.273 17.875C86.773 18.5583 86.523 19.5667 86.523 20.9C86.523 21.95 86.673 22.7833 86.973 23.4C87.273 24 87.6897 24.3 88.223 24.3ZM99.782 32.6C99.0154 32.6 98.2154 32.4167 97.382 32.05L97.907 29.15C98.5404 29.4667 99.0737 29.625 99.507 29.625C100.024 29.625 100.407 29.4583 100.657 29.125C100.924 28.7917 101.207 28.2083 101.507 27.375L96.482 14.175L100.132 13.875L103.207 23.1L106.057 14.125H109.532C108.465 17.3583 107.34 20.5417 106.157 23.675C104.99 26.8083 104.082 28.9583 103.432 30.125C102.965 30.9583 102.44 31.575 101.857 31.975C101.29 32.3917 100.599 32.6 99.782 32.6ZM114.866 27.375C113.532 27.375 112.474 26.8083 111.691 25.675C110.907 24.5417 110.516 23 110.516 21.05C110.516 18.6833 111.116 16.8833 112.316 15.65C113.516 14.4 115.241 13.775 117.491 13.775C118.757 13.775 120.241 13.975 121.941 14.375V27H118.591L118.666 24.95H118.566C118.132 25.7333 117.599 26.3333 116.966 26.75C116.349 27.1667 115.649 27.375 114.866 27.375ZM115.616 24.3C116.132 24.3 116.641 24.025 117.141 23.475C117.641 22.925 118.107 22.1917 118.541 21.275V17.075C118.007 16.925 117.474 16.85 116.941 16.85C115.941 16.85 115.182 17.1917 114.666 17.875C114.166 18.5583 113.916 19.5667 113.916 20.9C113.916 21.95 114.066 22.7833 114.366 23.4C114.666 24 115.082 24.3 115.616 24.3Z" fill="black"/>
</svg>
